<?xml version="1.0" encoding="utf-8"?>
<!-- Generator: Adobe Illustrator 16.0.0, SVG Export Plug-In . SVG Version: 6.00 Build 0)  -->
<!DOCTYPE svg PUBLIC "-//W3C//DTD SVG 1.1//EN" "http://www.w3.org/Graphics/SVG/1.1/DTD/svg11.dtd">
<svg version="1.1" xmlns="http://www.w3.org/2000/svg" xmlns:xlink="http://www.w3.org/1999/xlink" x="0px" y="0px" width="30px"
	 height="30px" viewBox="0 0 30 30" enable-background="new 0 0 30 30" xml:space="preserve">
<g id="circle">
	<ellipse fill="#CC0000" cx="14.775" cy="14.834" rx="13.775" ry="13.77"/>
</g>
<g id="wrench">
	<g>
		<path fill="#FFFFFF" d="M9.854,12.685c0.382,0,0.751-0.077,1.099-0.228c0.034-0.015,0.069-0.022,0.104-0.022
			c0.068,0,0.134,0.027,0.185,0.077l1.942,1.942l1.32-1.319l-2.003-2.003c-0.071-0.071-0.095-0.177-0.062-0.272
			c0.35-0.991,0.097-2.108-0.644-2.849c-0.517-0.517-1.205-0.803-1.937-0.803c-0.221,0-0.439,0.026-0.65,0.078l1.287,1.288
			c0.053,0.052,0.081,0.125,0.076,0.198l-0.083,1.559c-0.007,0.134-0.114,0.24-0.247,0.248l-1.56,0.083
			c-0.078,0.005-0.146-0.023-0.199-0.077L7.196,9.296c-0.225,0.921,0.04,1.902,0.725,2.588C8.438,12.4,9.124,12.685,9.854,12.685z"
			/>
		<path fill="#FFFFFF" d="M21.298,17.517c-0.516-0.516-1.201-0.8-1.932-0.8c-0.348,0-0.687,0.065-1.01,0.192
			c-0.097,0.038-0.207,0.016-0.28-0.059l-1.901-1.903l-0.656,0.655l-0.665,0.665l1.904,1.904c0.074,0.073,0.097,0.182,0.06,0.278
			l-0.022,0.054c-0.006,0.013-0.012,0.024-0.016,0.037c-0.35,0.992-0.098,2.11,0.643,2.851c0.518,0.518,1.205,0.802,1.937,0.802
			c0.222,0,0.439-0.025,0.652-0.077l-1.288-1.288c-0.052-0.051-0.08-0.124-0.075-0.197l0.083-1.56
			c0.007-0.134,0.112-0.239,0.245-0.248l1.561-0.082c0.073-0.004,0.146,0.023,0.199,0.076l1.287,1.287
			C22.248,19.183,21.983,18.202,21.298,17.517z"/>
		<path fill="#FFFFFF" d="M11.772,21.387c0.521-0.51,0.814-1.191,0.822-1.921c0.004-0.348-0.056-0.689-0.18-1.013
			c-0.037-0.097-0.013-0.207,0.062-0.279l1.924-1.88l-0.646-0.663l-0.658-0.672L11.17,16.84c-0.073,0.072-0.183,0.094-0.279,0.057
			l-0.053-0.023c-0.012-0.006-0.025-0.012-0.037-0.016c-0.988-0.361-2.109-0.122-2.859,0.609c-0.523,0.511-0.816,1.194-0.825,1.927
			c-0.002,0.221,0.021,0.439,0.07,0.652l1.303-1.271c0.052-0.053,0.125-0.079,0.199-0.074l1.559,0.101
			c0.134,0.009,0.238,0.117,0.244,0.25l0.065,1.561c0.002,0.073-0.025,0.146-0.078,0.198l-1.303,1.271
			C10.095,22.317,11.079,22.064,11.772,21.387z"/>
		<path fill="#FFFFFF" d="M17.538,8.021c-0.521,0.511-0.81,1.194-0.817,1.923c-0.003,0.348,0.06,0.688,0.185,1.012
			c0.036,0.097,0.012,0.207-0.062,0.279l-1.918,1.887l0.649,0.66l0.659,0.67l1.92-1.887c0.073-0.073,0.185-0.095,0.28-0.057
			l0.052,0.023c0.014,0.005,0.024,0.011,0.037,0.016c0.988,0.358,2.109,0.116,2.856-0.618c0.521-0.513,0.812-1.198,0.818-1.93
			c0.003-0.221-0.021-0.439-0.071-0.652l-1.299,1.277c-0.053,0.051-0.124,0.079-0.197,0.074l-1.561-0.096
			c-0.133-0.008-0.238-0.116-0.244-0.249l-0.069-1.56c-0.003-0.073,0.025-0.146,0.077-0.198l1.299-1.277
			C19.212,7.084,18.229,7.341,17.538,8.021z"/>
	</g>
</g>
</svg>
